<svg width="84" height="48" viewBox="0 0 84 48" fill="none" xmlns="http://www.w3.org/2000/svg">
<path d="M82.074 3.24752C82.6609 1.37395 82.074 0 79.299 0H70.106C67.7669 0 66.698 1.18861 66.1111 2.49406C66.1111 2.49406 61.4371 13.4494 54.8138 20.5528C52.6759 22.6198 51.6992 23.2725 50.5339 23.2725C49.9512 23.2725 49.1044 22.6198 49.1044 20.7462V3.24752C49.1044 0.999237 48.4295 0 46.4803 0H32.0348C30.576 0 29.6957 1.03953 29.6957 2.03071C29.6957 4.15811 33.0074 4.64967 33.3469 10.6451V23.6513C33.3469 26.4999 32.8145 27.0197 31.6408 27.0197C28.5262 27.0197 20.9471 16.024 16.4492 3.43689C15.5731 0.991179 14.6886 0.00403081 12.3411 0.00403081H3.15234C0.523993 0.00403081 0 1.19264 0 2.49809C0 4.84307 3.11461 16.4471 14.5083 31.7943C22.1041 42.2741 32.7978 47.9553 42.5398 47.9553C48.3792 47.9553 49.1002 46.6942 49.1002 44.5184V36.597C49.1002 34.0748 49.6577 33.5671 51.5064 33.5671C52.8646 33.5671 55.2037 34.2279 60.6574 39.2764C66.8866 45.2638 67.9178 47.9513 71.4181 47.9513H80.6069C83.231 47.9513 84.5431 46.6901 83.7885 44.2001C82.9627 41.7221 79.9864 38.116 76.0376 33.8491C73.8914 31.4155 70.6845 28.7965 69.7078 27.4871C68.3454 25.7988 68.7395 25.0534 69.7078 23.5546C69.712 23.5586 80.9087 8.40084 82.074 3.24752Z" fill="black"/>
</svg>
