<svg width="51" height="51" viewBox="0 0 51 51" fill="none" xmlns="http://www.w3.org/2000/svg">
<path fill-rule="evenodd" clip-rule="evenodd" d="M43 7.35054C40.6784 5.01359 37.916 3.16057 34.8731 1.89883C31.8302 0.637087 28.5671 -0.0082919 25.273 8.04255e-05C11.4598 8.04255e-05 0.214958 11.2421 0.209375 25.0609C0.209375 29.4773 1.36233 33.7876 3.55379 37.5899L0 50.5739L13.2855 47.0871C16.9605 49.0876 21.0776 50.1366 25.2618 50.1384H25.273C39.0833 50.1384 50.3282 38.8964 50.3337 25.0776C50.3432 21.7848 49.7 18.5228 48.4412 15.48C47.1824 12.4373 45.3331 9.67424 43 7.35054ZM25.273 45.909H25.2646C21.5336 45.9094 17.8712 44.9056 14.6618 43.0029L13.9025 42.5507L6.01883 44.6193L8.12096 36.9338L7.62683 36.1466C5.54087 32.8257 4.43661 28.9826 4.44154 25.0609C4.44713 13.576 13.7908 4.23225 25.2813 4.23225C28.0179 4.22617 30.7284 4.76289 33.2562 5.81136C35.7839 6.85982 38.0785 8.39921 40.0074 10.3404C41.9465 12.2724 43.4835 14.5695 44.5296 17.099C45.5756 19.6286 46.1099 22.3403 46.1016 25.0776C46.096 36.5625 36.7523 45.909 25.273 45.909ZM36.6992 30.3064C36.0711 29.991 32.9947 28.4779 32.4196 28.2685C31.8473 28.0591 31.4314 27.9558 31.0126 28.5812C30.5939 29.2065 29.3935 30.6163 29.0277 31.035C28.662 31.4538 28.2963 31.504 27.671 31.1914C27.0457 30.8787 25.0273 30.2171 22.6348 28.0842C20.7728 26.4232 19.5165 24.3741 19.1508 23.746C18.7851 23.1179 19.1117 22.7801 19.4272 22.4674C19.7092 22.1882 20.0525 21.736 20.3652 21.3703C20.6779 21.0046 20.7812 20.745 20.9905 20.3262C21.1999 19.9075 21.0966 19.5417 20.9375 19.2291C20.7812 18.9136 19.5277 15.8316 19.0057 14.5782C18.5004 13.3638 17.9839 13.5257 17.5987 13.509C17.1997 13.4926 16.8004 13.4852 16.401 13.4866C16.0835 13.4947 15.7711 13.5683 15.4833 13.7028C15.1956 13.8373 14.9387 14.0299 14.7288 14.2683C14.1537 14.8964 12.5374 16.4095 12.5374 19.4915C12.5374 22.5735 14.7819 25.5522 15.0945 25.971C15.4072 26.3897 19.511 32.7128 25.7922 35.4263C27.2885 36.0712 28.4555 36.4565 29.3627 36.7468C30.8619 37.2242 32.227 37.1544 33.3074 36.9953C34.5106 36.8166 37.0119 35.4822 37.534 34.0193C38.056 32.5565 38.056 31.303 37.8997 31.0406C37.7433 30.7782 37.3218 30.6191 36.6992 30.3064Z" fill="black"/>
</svg>
